# xmcd
#
# Track frame offsets: 
#        225
#        23240
#        35894
#        49483
#        59268
#        76230
#        96819
#        107999
#        125570
#        138960
#        148811
#        164438
#        176247
#        190597
#        207319
#        218196
#        228790
#        242579
#        261983
#        299710
#        315201
#
# Disc length: 4390 seconds
#
# Revision: 0
# Processed by: cddbd v1.5.1PL0 Copyright (c) Steve Scherf et al.
# Submitted via: ExactAudioCopy v0.95a5
#
DISCID=41112315
DTITLE=Beatles - Complete Edition CD 7
DYEAR=1967
DGENRE=Oldies
TTITLE0=Within you without you
TTITLE1=Magical mystery tour
TTITLE2=Baby you´re a rich man
TTITLE3=All together now
TTITLE4=All you need is love
TTITLE5=I am the walrus
TTITLE6=Your mother should know
TTITLE7=Blue jay way
TTITLE8=The fool on the hill
TTITLE9=Flying
TTITLE10=Hello Goodbye
TTITLE11=The inner light
TTITLE12=Hey bulldog
TTITLE13=Across the universe
TTITLE14=Junk
TTITLE15=Blackbird
TTITLE16=Cry baby cry
TTITLE17=Revolution 1
TTITLE18=Revolution 9
TTITLE19=Revolution
TTITLE20=Ob-La-Di, Ob-La-Da
EXTD=
EXTT0=
EXTT1=
EXTT2=
EXTT3=
EXTT4=
EXTT5=
EXTT6=
EXTT7=
EXTT8=
EXTT9=
EXTT10=
EXTT11=
EXTT12=
EXTT13=
EXTT14=
EXTT15=
EXTT16=
EXTT17=
EXTT18=
EXTT19=
EXTT20=
PLAYORDER=
